<svg aria-roledescription="er" viewBox="0 0 340 276.091796875" style="max-width: 340px;" xmlns="http://www.w3.org/2000/svg" width="undefined" id="mermaid-svg" height="undefined"><style>#mermaid-svg{font-family:"trebuchet ms",verdana,arial,sans-serif;font-size:16px;fill:#333;}#mermaid-svg .error-icon{fill:#552222;}#mermaid-svg .error-text{fill:#552222;stroke:#552222;}#mermaid-svg .edge-thickness-normal{stroke-width:2px;}#mermaid-svg .edge-thickness-thick{stroke-width:3.5px;}#mermaid-svg .edge-pattern-solid{stroke-dasharray:0;}#mermaid-svg .edge-pattern-dashed{stroke-dasharray:3;}#mermaid-svg .edge-pattern-dotted{stroke-dasharray:2;}#mermaid-svg .marker{fill:#333333;stroke:#333333;}#mermaid-svg .marker.cross{stroke:#333333;}#mermaid-svg svg{font-family:"trebuchet ms",verdana,arial,sans-serif;font-size:16px;}#mermaid-svg .entityBox{fill:#ECECFF;stroke:#9370DB;}#mermaid-svg .attributeBoxOdd{fill:#ffffff;stroke:#9370DB;}#mermaid-svg .attributeBoxEven{fill:#f2f2f2;stroke:#9370DB;}#mermaid-svg .relationshipLabelBox{fill:hsl(80, 100%, 96.2745098039%);opacity:0.7;background-color:hsl(80, 100%, 96.2745098039%);}#mermaid-svg .relationshipLabelBox rect{opacity:0.5;}#mermaid-svg .relationshipLine{stroke:#333333;}#mermaid-svg .entityTitleText{text-anchor:middle;font-size:18px;fill:#333;}#mermaid-svg :root{--mermaid-font-family:"trebuchet ms",verdana,arial,sans-serif;}</style><g></g><defs><marker orient="auto" markerHeight="18" markerWidth="18" refY="9" refX="0" id="ONLY_ONE_START"><path d="M9,0 L9,18 M15,0 L15,18" fill="none" stroke="gray"></path></marker></defs><defs><marker orient="auto" markerHeight="18" markerWidth="18" refY="9" refX="18" id="ONLY_ONE_END"><path d="M3,0 L3,18 M9,0 L9,18" fill="none" stroke="gray"></path></marker></defs><defs><marker orient="auto" markerHeight="18" markerWidth="30" refY="9" refX="0" id="ZERO_OR_ONE_START"><circle r="6" cy="9" cx="21" fill="white" stroke="gray"></circle><path d="M9,0 L9,18" fill="none" stroke="gray"></path></marker></defs><defs><marker orient="auto" markerHeight="18" markerWidth="30" refY="9" refX="30" id="ZERO_OR_ONE_END"><circle r="6" cy="9" cx="9" fill="white" stroke="gray"></circle><path d="M21,0 L21,18" fill="none" stroke="gray"></path></marker></defs><defs><marker orient="auto" markerHeight="36" markerWidth="45" refY="18" refX="18" id="ONE_OR_MORE_START"><path d="M0,18 Q 18,0 36,18 Q 18,36 0,18 M42,9 L42,27" fill="none" stroke="gray"></path></marker></defs><defs><marker orient="auto" markerHeight="36" markerWidth="45" refY="18" refX="27" id="ONE_OR_MORE_END"><path d="M3,9 L3,27 M9,18 Q27,0 45,18 Q27,36 9,18" fill="none" stroke="gray"></path></marker></defs><defs><marker orient="auto" markerHeight="36" markerWidth="57" refY="18" refX="18" id="ZERO_OR_MORE_START"><circle r="6" cy="18" cx="48" fill="white" stroke="gray"></circle><path d="M0,18 Q18,0 36,18 Q18,36 0,18" fill="none" stroke="gray"></path></marker></defs><defs><marker orient="auto" markerHeight="36" markerWidth="57" refY="18" refX="39" id="ZERO_OR_MORE_END"><circle r="6" cy="18" cx="9" fill="white" stroke="gray"></circle><path d="M21,18 Q39,0 57,18 Q39,36 21,18" fill="none" stroke="gray"></path></marker></defs><path style="stroke: gray; fill: none;" marker-start="url(#ZERO_OR_MORE_START)" marker-end="url(#ONLY_ONE_END)" d="M129.52380952380952,88L119.6031746031746,96.33333333333333C109.68253968253968,104.66666666666667,89.84126984126983,121.33333333333333,79.92063492063492,138C70,154.66666666666666,70,171.33333333333334,70,179.66666666666666L70,188" class="er relationshipLine"></path><path style="stroke: gray; fill: none;" marker-start="url(#ZERO_OR_MORE_START)" marker-end="url(#ONLY_ONE_END)" d="M210.47619047619048,88L220.3968253968254,96.33333333333333C230.31746031746033,104.66666666666667,250.15873015873015,121.33333333333333,260.07936507936506,138C270,154.66666666666666,270,171.33333333333334,270,179.66666666666666L270,188" class="er relationshipLine"></path><g transform="translate(20,188 )" id="entity-User-15a37a1b-03fd-4921-b38c-088ea6a5f90f"><rect height="68.091796875" width="100" y="0" x="0" class="er entityBox"></rect><text style="dominant-baseline: middle; text-anchor: middle; font-size: 12px;" transform="translate(50,12)" y="0" x="0" id="text-entity-User-15a37a1b-03fd-4921-b38c-088ea6a5f90f" class="er entityLabel">User</text><rect height="22" width="50.78125" y="24" x="0" class="er attributeBoxOdd"></rect><text style="dominant-baseline: middle; font-size: 10.2px;" transform="translate(5,35)" y="0" x="0" id="text-entity-User-15a37a1b-03fd-4921-b38c-088ea6a5f90f-attr-1-type" class="er entityLabel">Int</text><rect height="22" width="49.21875" y="24" x="50.78125" class="er attributeBoxOdd"></rect><text style="dominant-baseline: middle; font-size: 10.2px;" transform="translate(55.78125,35)" y="0" x="0" id="text-entity-User-15a37a1b-03fd-4921-b38c-088ea6a5f90f-attr-1-name" class="er entityLabel">id</text><rect height="22.091796875" width="50.78125" y="46" x="0" class="er attributeBoxEven"></rect><text style="dominant-baseline: middle; font-size: 10.2px;" transform="translate(5,57.0458984375)" y="0" x="0" id="text-entity-User-15a37a1b-03fd-4921-b38c-088ea6a5f90f-attr-2-type" class="er entityLabel">String</text><rect height="22.091796875" width="49.21875" y="46" x="50.78125" class="er attributeBoxEven"></rect><text style="dominant-baseline: middle; font-size: 10.2px;" transform="translate(55.78125,57.0458984375)" y="0" x="0" id="text-entity-User-15a37a1b-03fd-4921-b38c-088ea6a5f90f-attr-2-name" class="er entityLabel">name</text></g><g transform="translate(220,188 )" id="entity-Place-304ec578-d7ff-4d77-9bf3-d932dc17ce49"><rect height="68.091796875" width="100" y="0" x="0" class="er entityBox"></rect><text style="dominant-baseline: middle; text-anchor: middle; font-size: 12px;" transform="translate(50,12)" y="0" x="0" id="text-entity-Place-304ec578-d7ff-4d77-9bf3-d932dc17ce49" class="er entityLabel">Place</text><rect height="22" width="50.78125" y="24" x="0" class="er attributeBoxOdd"></rect><text style="dominant-baseline: middle; font-size: 10.2px;" transform="translate(5,35)" y="0" x="0" id="text-entity-Place-304ec578-d7ff-4d77-9bf3-d932dc17ce49-attr-1-type" class="er entityLabel">Int</text><rect height="22" width="49.21875" y="24" x="50.78125" class="er attributeBoxOdd"></rect><text style="dominant-baseline: middle; font-size: 10.2px;" transform="translate(55.78125,35)" y="0" x="0" id="text-entity-Place-304ec578-d7ff-4d77-9bf3-d932dc17ce49-attr-1-name" class="er entityLabel">id</text><rect height="22.091796875" width="50.78125" y="46" x="0" class="er attributeBoxEven"></rect><text style="dominant-baseline: middle; font-size: 10.2px;" transform="translate(5,57.0458984375)" y="0" x="0" id="text-entity-Place-304ec578-d7ff-4d77-9bf3-d932dc17ce49-attr-2-type" class="er entityLabel">String</text><rect height="22.091796875" width="49.21875" y="46" x="50.78125" class="er attributeBoxEven"></rect><text style="dominant-baseline: middle; font-size: 10.2px;" transform="translate(55.78125,57.0458984375)" y="0" x="0" id="text-entity-Place-304ec578-d7ff-4d77-9bf3-d932dc17ce49-attr-2-name" class="er entityLabel">name</text></g><g transform="translate(114.0859375,20 )" id="entity-Vacation-7fc0601e-6ace-4f7a-a635-6c5aad12c381"><rect height="68" width="111.828125" y="0" x="0" class="er entityBox"></rect><text style="dominant-baseline: middle; text-anchor: middle; font-size: 12px;" transform="translate(55.9140625,12)" y="0" x="0" id="text-entity-Vacation-7fc0601e-6ace-4f7a-a635-6c5aad12c381" class="er entityLabel">Vacation</text><rect height="22" width="53.671875" y="24" x="0" class="er attributeBoxOdd"></rect><text style="dominant-baseline: middle; font-size: 10.2px;" transform="translate(5,35)" y="0" x="0" id="text-entity-Vacation-7fc0601e-6ace-4f7a-a635-6c5aad12c381-attr-1-type" class="er entityLabel">Int</text><rect height="22" width="58.15625" y="24" x="53.671875" class="er attributeBoxOdd"></rect><text style="dominant-baseline: middle; font-size: 10.2px;" transform="translate(58.671875,35)" y="0" x="0" id="text-entity-Vacation-7fc0601e-6ace-4f7a-a635-6c5aad12c381-attr-1-name" class="er entityLabel">id</text><rect height="22" width="53.671875" y="46" x="0" class="er attributeBoxEven"></rect><text style="dominant-baseline: middle; font-size: 10.2px;" transform="translate(5,57)" y="0" x="0" id="text-entity-Vacation-7fc0601e-6ace-4f7a-a635-6c5aad12c381-attr-2-type" class="er entityLabel">DateTime</text><rect height="22" width="58.15625" y="46" x="53.671875" class="er attributeBoxEven"></rect><text style="dominant-baseline: middle; font-size: 10.2px;" transform="translate(58.671875,57)" y="0" x="0" id="text-entity-Vacation-7fc0601e-6ace-4f7a-a635-6c5aad12c381-attr-2-name" class="er entityLabel">travelDate</text></g><rect height="14" width="81.59375" y="123.15162658691406" x="44.47662353515625" class="er relationshipLabelBox"></rect><text style="text-anchor: middle; dominant-baseline: middle; font-size: 12px;" y="130.15162658691406" x="85.27349853515625" id="rel1" class="er relationshipLabel">UserToVacation</text><rect height="14" width="86.765625" y="123.15170288085938" x="211.34361267089844" class="er relationshipLabelBox"></rect><text style="text-anchor: middle; dominant-baseline: middle; font-size: 12px;" y="130.15170288085938" x="254.72642517089844" id="rel2" class="er relationshipLabel">PlaceToVacation</text></svg>